<!--?xml version="1.0" encoding="utf-8"?-->
<!-- Svg Vector Icons : http://www.onlinewebfonts.com/icon -->

<svg version="1.1" xmlns="http://www.w3.org/2000/svg" xmlns:xlink="http://www.w3.org/1999/xlink" x="0px" y="0px" viewBox="0 0 256 256" enable-background="new 0 0 256 256" xml:space="preserve">
<metadata> Svg Vector Icons : http://www.onlinewebfonts.com/icon </metadata>
<g><g><path fill="#f8fafc" data-title="Layer 0" xs="0" d="M128,246c-65.2,0-118-52.8-118-118C10,62.8,62.8,10,128,10c65.2,0,118,52.8,118,118C246,193.2,193.2,246,128,246z M128,22.2C69.6,22.2,22.2,69.6,22.2,128c0,58.4,47.4,105.8,105.8,105.8S233.8,186.4,233.8,128S186.4,22.2,128,22.2z"/><path fill="#f8fafc" data-title="Layer 1" xs="1" d="M186.9,200.8V63.7l-22.4-18.9l-74.5,27v6.7l67.6-22.1v154.2h45v-9.9L186.9,200.8L186.9,200.8z M65.8,158.5l35.4-6.9v-17.4l-35.4,9V158.5z M65.8,210.9h35.4v-18.3l-35.4,2.5V210.9z M65.8,184.6l35.4-3.3v-17.4l-35.4,5.8V184.6z M65.8,131.9l35.4-9.5v-18.1L65.8,116V131.9z M140.6,86.9l-20-11.8l-75.4,26.3l0,109.8h9.9V106.8l56.4-18v121.9h29.1V86.9z"/></g></g>
</svg>